<?xml version="1.0" encoding="utf-8"?>
<!-- Generator: Adobe Illustrator 24.3.0, SVG Export Plug-In . SVG Version: 6.00 Build 0)  -->
<svg version="1.1" id="Layer_1" xmlns="http://www.w3.org/2000/svg" xmlns:xlink="http://www.w3.org/1999/xlink" x="0px" y="0px"
	 width="32px" height="32px" viewBox="0 0 32 32" style="enable-background:new 0 0 32 32;" xml:space="preserve">
<path style="fill-rule:evenodd;clip-rule:evenodd;fill:#030303;" d="M28.8,0.9L4,0.9l0.3,19.9c0,0.1,0,0.2,0,0.3
	c0,5.7,5.5,10.1,12.4,10.1c6.6,0,12-4.2,12.3-9.6h0L28.8,0.9z"/>
<path style="fill-rule:evenodd;clip-rule:evenodd;fill:#5F4F12;" d="M27.5,2.1l-22.4,0l0.3,18.3c0,0.1,0,0.2,0,0.3
	c0,5.2,5,9.3,11.1,9.3c6,0,10.8-3.8,11.1-8.8h0L27.5,2.1z"/>
<path style="fill-rule:evenodd;clip-rule:evenodd;fill:#030303;" d="M26.2,25.1L5.5,2.2l0,18.2c0,0.1,0,0.2,0,0.3
	c0,5.2,5,9.3,11.1,9.3c6,0,10.8-3.8,11.1-8.8l-1.3,3.9H26.2z"/>
<path style="fill-rule:evenodd;clip-rule:evenodd;fill:#0C1529;" d="M27.4,2.1l-22.2,0l0.3,18.2c0,0.1,0,0.2,0,0.3
	c0,5.2,4.9,9.2,11,9.2c5.9,0,10.7-3.8,11-8.8h0L27.4,2.1z M16.5,29.4c-5.9,0-10.7-4.1-10.7-9c0-0.1,0-0.2,0-0.3L5.6,2.4l21.5,0
	l0.2,18.5C27,25.7,22.3,29.4,16.5,29.4z"/>
<path style="fill-rule:evenodd;clip-rule:evenodd;fill:#EFE4B1;" d="M27.6,1.9l-22.5,0l0.3,18.5c0,0.1,0,0.2,0,0.3
	c0,5.2,5,9.4,11.2,9.4c6,0,10.9-3.8,11.2-8.9v0L27.6,1.9z M16.5,29.6c-6,0-10.9-4.1-10.9-9.2c0-0.1,0-0.2,0-0.3l-0.3-18l21.9,0
	L27.4,21C27.1,25.8,22.4,29.6,16.5,29.6z"/>
<path style="fill-rule:evenodd;clip-rule:evenodd;fill:#D4BF64;" d="M27.6,1.9l-22.5,0l0.3,18.5c0,0.1,0,0.2,0,0.3
	c0,5.2,5,9.4,11.2,9.4c6,0,10.9-3.8,11.2-8.9v0L27.6,1.9z M16.5,29.6c-6,0-10.9-4.1-10.9-9.2c0-0.1,0-0.2,0-0.3l-0.3-18l21.9,0
	L27.4,21C27.1,25.8,22.4,29.6,16.5,29.6z"/>
<path style="fill-rule:evenodd;clip-rule:evenodd;fill:#D7C265;" d="M29.1,0.6l-25.4,0L4,21c0,0.1,0,0.2,0,0.3
	c0,5.8,5.7,10.4,12.6,10.4c6.8,0,12.3-4.2,12.7-9.8v0L29.1,0.6z M16.6,31.2c-6.8,0-12.3-4.6-12.3-10.1c0-0.1,0-0.2,0-0.3L4.1,0.9
	l24.6,0l0.2,20.8C28.6,27.1,23.2,31.2,16.6,31.2z"/>
<path d="M8.1,22.2c0.1-0.1,0.3-0.3,0.4-0.4c0,0,0-0.1,0-0.1c0,0,0-0.1,0.1-0.1c0-0.1,0-0.3,0-0.3c-0.1-0.3-0.3-0.4-0.4-0.7
	c0,0,0.1-0.1,0.1-0.1c0-0.1,0.1-0.2,0-0.3c-0.1-0.3-0.3-0.5-0.4-0.9c0-0.2,0-0.5,0-0.7c0-0.1,0.2-0.2,0.1-0.3c0-0.1-0.1-0.1-0.2-0.2
	c0.1-0.1,0.4-0.2,0.3-0.4c-0.1-0.1-0.3-0.1-0.3-0.2c0,0,0.1-0.1,0.1-0.2c0-0.1,0-0.3,0-0.3c0-0.1-0.1-0.2-0.2-0.3c0-0.5,0-1,0-1.6
	l0-2.6c0-0.5,0-1,0-1.6c0-0.1,0.1-0.2,0.2-0.3c0-0.1,0.1-0.2,0-0.3c0,0-0.1-0.1-0.1-0.2C7.7,10,8,10,8,9.9c0.1-0.2-0.2-0.3-0.3-0.4
	c0.1,0,0.1-0.1,0.2-0.2c0-0.2-0.1-0.2-0.1-0.3c-0.1-0.2,0-0.5,0-0.7C7.8,8,8.1,7.8,8.2,7.4c0-0.1,0-0.3,0-0.3C8.1,7.1,8.1,7,8,7
	c0.2-0.2,0.3-0.4,0.4-0.7c0-0.1,0.1-0.2,0-0.3c0,0,0-0.1-0.1-0.1c0,0,0-0.1,0-0.1C8.4,5.5,8.2,5.4,8.1,5.3C8,5.2,7.9,5.1,7.9,5
	c0-0.1,0-0.2,0-0.1c0,0.1-0.1,0.3,0,0.4C7.9,5.4,8,5.4,8,5.5c0,0,0,0,0,0c-0.1,0-0.2,0-0.3,0C7.4,5.6,7.3,5.7,7.3,5.9
	c0,0,0,0.1,0,0.2c0,0.1,0.1,0.2,0.2,0.3l0,0c-0.1,0-0.3,0.2-0.2,0.4c0,0.1,0.1,0.1,0.2,0.2c0,0,0,0.1-0.1,0.1
	C7.3,7.2,7.2,7.3,7.2,7.4C7.1,7.6,7.1,7.7,7.1,7.9C7,8,7,8.1,7,8.2c0,0.4,0,0.6,0.2,0.9c0,0.1,0.1,0.2,0.2,0.3c0,0,0,0.1,0,0.1
	C7,9.5,7.1,9.8,7.3,9.9c0,0,0.1,0.1,0.1,0.1c0,0-0.1,0.1-0.1,0.2c0,0.1-0.1,0.3,0,0.4c0,0.1,0.2,0.2,0.2,0.3c0,0.5,0,1.1,0,1.6
	c0,0.5,0,1.9,0,2.4c0,0.5,0,1.1,0,1.6c0,0.1-0.2,0.2-0.2,0.3c0,0.1,0,0.3,0,0.4c0,0,0.1,0.1,0.1,0.2c0,0-0.1,0.1-0.1,0.1
	C7.1,17.8,7,18,7.3,18.1c0,0,0,0,0,0.1c0,0.1-0.1,0.2-0.2,0.3C7.1,18.7,7,18.9,7,19.3c0,0.1,0,0.2,0,0.3c0,0.2,0.1,0.3,0.1,0.5
	c0,0.1,0.1,0.2,0.2,0.3c0,0,0.1,0.1,0.1,0.1c-0.1,0.1-0.1,0.1-0.2,0.2c-0.1,0.2,0.1,0.3,0.2,0.4l0,0c-0.1,0.1-0.2,0.1-0.2,0.3
	c0,0.1,0,0.2,0,0.2c0.1,0.2,0.1,0.3,0.4,0.3c0.1,0,0.2,0,0.3,0c0,0,0,0,0,0c0,0.1-0.1,0.1-0.2,0.2c-0.1,0.1,0,0.3,0,0.4
	c0,0,0-0.1,0-0.1C7.9,22.4,8,22.3,8.1,22.2z M7.6,6.8c0-0.1,0.1-0.1,0.1-0.2c0,0,0,0,0,0c0,0,0,0,0,0C7.7,6.6,7.6,6.8,7.6,6.8
	l-0.1,0c-0.1,0-0.1-0.1-0.1-0.1c0-0.1,0.1-0.1,0.2-0.2C7.8,6.5,7.9,6.4,8,6.3C8.1,6.2,8.1,6,7.9,6C7.8,6,7.8,6,7.8,6.1c0,0,0,0,0,0
	c0,0,0.1,0,0.1,0c0,0,0,0,0,0c0,0.1-0.2,0.2-0.4,0.1C7.4,6.3,7.4,6,7.5,5.9c0.3-0.3,0.8,0,0.8,0.3c0,0.2-0.3,0.5-0.4,0.6
	C7.8,6.9,7.7,6.9,7.6,6.8z M8,7.1c0.1,0.4-0.2,0.6-0.3,0.9c0,0.1-0.1,0.3-0.1,0.4c0,0,0,0.1,0,0.2c0,0,0,0,0,0l0,0
	C7.5,8.5,7.5,8.3,7.5,8.2c0-0.1,0-0.2,0-0.3c0.1-0.2,0.2-0.4,0.3-0.6C7.8,7.2,7.9,7.2,8,7.1C7.9,7.1,8,7.1,8,7.1z M7.1,8.2
	c0-0.1,0-0.2,0-0.3c0.1-0.2,0.1-0.4,0.2-0.6C7.4,7.2,7.4,7,7.5,7c0,0,0.2,0,0.2,0c0,0,0,0,0,0c0,0.1-0.1,0.1-0.1,0.2
	C7.6,7.3,7.5,7.4,7.5,7.4C7.4,7.7,7.4,7.9,7.3,8.2c0,0.3,0.1,0.7,0.2,0.8C7.6,9,7.8,9.2,7.7,9.3c0,0-0.1,0-0.1,0
	C7.3,9.2,7.1,8.6,7.1,8.2z M7.3,9.6C7.3,9.5,7.4,9.5,7.3,9.6c0.1,0,0.1,0,0.1,0c0,0,0.3,0.3,0.3,0.3c0,0-0.1,0-0.1,0.1
	C7.6,9.8,7.4,9.6,7.3,9.6z M7.4,10.4c0-0.1,0-0.1,0.1-0.1c0,0,0,0,0.1,0c0,0.1,0.1,0.2,0,0.3c0,0-0.1,0-0.1,0
	C7.5,10.5,7.4,10.5,7.4,10.4z M7.5,17.3c-0.1,0-0.1-0.1-0.1-0.1c0-0.1,0-0.1,0.1-0.2c0,0,0.1,0,0.1,0C7.7,17.1,7.6,17.2,7.5,17.3
	C7.6,17.3,7.6,17.3,7.5,17.3z M7.4,18C7.4,18,7.4,18,7.4,18c0-0.1,0.2-0.3,0.3-0.3c0,0,0.1,0,0.1,0.1C7.7,17.7,7.5,17.9,7.4,18
	C7.4,18,7.4,18,7.4,18z M7.6,18.9c0,0,0,0.1,0,0.2c0,0.1,0,0.3,0.1,0.4C7.8,19.7,8.1,20,8,20.4c0,0,0,0,0,0c-0.1,0-0.1-0.1-0.2-0.2
	c-0.1-0.2-0.2-0.3-0.3-0.6c0-0.1,0-0.2,0-0.3C7.5,19.1,7.5,19,7.6,18.9L7.6,18.9C7.6,18.9,7.6,18.9,7.6,18.9z M7.4,20.3
	c-0.1-0.2-0.2-0.4-0.2-0.6c0-0.1,0-0.2,0-0.3c0-0.4,0.2-1,0.4-1.2c0,0,0.1,0,0.1,0c0.1,0.1-0.1,0.3-0.1,0.4
	c-0.1,0.1-0.2,0.5-0.2,0.8c0,0.3,0.1,0.5,0.2,0.7c0,0.1,0.1,0.2,0.1,0.2c0,0.1,0.1,0.1,0.1,0.2c0,0,0,0,0,0c0,0-0.2,0.1-0.2,0
	C7.5,20.5,7.4,20.3,7.4,20.3z M7.5,21.6c-0.1-0.1-0.1-0.3,0.1-0.4c0.2-0.1,0.4,0,0.4,0.1c0,0,0,0,0,0c-0.1,0-0.1,0-0.1,0
	c0,0,0,0,0,0c0,0.1,0,0.1,0.1,0.1c0.2,0,0.2-0.2,0.1-0.4C7.9,21.1,7.8,21,7.6,21c-0.1,0-0.2-0.1-0.2-0.2c0-0.1,0.1-0.1,0.1-0.1h0
	c0,0,0.1,0.2,0.1,0.2c0,0,0,0,0,0c0,0,0,0,0,0c0-0.1-0.1-0.1-0.1-0.2c0,0,0.1,0,0.2,0C8,20.8,8.2,21,8.3,21.2
	C8.4,21.6,7.8,21.9,7.5,21.6z M8.4,5C8.3,5,8.3,5,8.4,5c0,0.1,0.2,0.3,0.3,0.3c0,0,0,0,0,0C8.7,5.2,8.5,5,8.4,5z M24.8,5.3
	c-0.1,0.1-0.3,0.3-0.4,0.4c0,0,0,0.1,0,0.1c0,0,0,0.1-0.1,0.1c0,0.1,0,0.3,0,0.3c0.1,0.3,0.3,0.4,0.4,0.7c-0.1,0-0.1,0.1-0.1,0.1
	c0,0.1-0.1,0.2,0,0.3C24.7,7.7,25,8,25,8.3c0,0.2,0,0.5,0,0.7c0,0.1-0.2,0.2-0.1,0.3c0,0.1,0.1,0.1,0.2,0.2
	c-0.1,0.1-0.4,0.2-0.3,0.4c0.1,0.1,0.3,0.1,0.3,0.2c0,0-0.1,0.1-0.1,0.2c0,0.1,0,0.3,0,0.3c0,0.1,0.1,0.2,0.2,0.3c0,0.5,0,1,0,1.6
	l0,2.6c0,0.5,0,1,0,1.6c0,0.1-0.1,0.2-0.2,0.3c0,0.1-0.1,0.2,0,0.3c0,0,0.1,0.1,0.1,0.2c0,0.1-0.3,0.1-0.3,0.2
	c-0.1,0.2,0.2,0.3,0.3,0.4c-0.1,0-0.1,0.1-0.2,0.2c0,0.2,0.1,0.2,0.1,0.3c0.1,0.2,0,0.5,0,0.7c-0.1,0.3-0.3,0.5-0.4,0.9
	c0,0.1,0,0.3,0,0.3c0,0,0.1,0.1,0.1,0.1c-0.2,0.2-0.3,0.4-0.4,0.7c0,0.1-0.1,0.2,0,0.3c0,0,0,0.1,0.1,0.1c0,0,0,0.1,0,0.1
	c0.1,0.2,0.3,0.3,0.4,0.4c0.1,0.1,0.1,0.2,0.1,0.2c0,0.1,0,0.2,0.1,0.1c0-0.1,0.1-0.3,0-0.4c0-0.1-0.2-0.1-0.2-0.2c0,0,0,0,0,0
	c0.1,0,0.2,0,0.3,0c0.3-0.1,0.4-0.2,0.4-0.3c0,0,0-0.2,0-0.2c0-0.1-0.1-0.2-0.2-0.3v0c0.1,0,0.3-0.2,0.2-0.4c0-0.1-0.1-0.1-0.2-0.2
	c0,0,0-0.1,0.1-0.1c0.1-0.1,0.1-0.2,0.1-0.3c0.1-0.2,0.1-0.3,0.1-0.5c0-0.1,0-0.2,0-0.3c0-0.4,0-0.6-0.2-0.9c0-0.1-0.1-0.2-0.2-0.3
	c0,0,0-0.1,0-0.1c0.3-0.1,0.2-0.3,0-0.5c0,0-0.1-0.1-0.1-0.1c0,0,0.1-0.1,0.1-0.2c0-0.1,0.1-0.3,0-0.4c0-0.1-0.2-0.2-0.2-0.3
	c0-0.5,0-1.1,0-1.6c0-0.5,0-1.9,0-2.4c0-0.5,0-1.1,0-1.6c0-0.1,0.1-0.2,0.2-0.3c0-0.1,0-0.3,0-0.4c0,0-0.1-0.1-0.1-0.2
	c0,0,0.1-0.1,0.1-0.1c0.1-0.2,0.3-0.4,0-0.5c0,0,0,0,0-0.1c0-0.1,0.1-0.2,0.1-0.3c0.1-0.3,0.2-0.5,0.1-0.9c0-0.1,0-0.2,0-0.3
	c0-0.2-0.1-0.3-0.1-0.5c0-0.1-0.1-0.2-0.2-0.3c0,0-0.1-0.1-0.1-0.1c0.1-0.1,0.1-0.1,0.2-0.2c0.1-0.2-0.1-0.3-0.2-0.4v0
	c0.1-0.1,0.2-0.1,0.2-0.3c0-0.1,0-0.2,0-0.2c-0.1-0.2-0.1-0.3-0.4-0.3c-0.1,0-0.2,0-0.3,0c0,0,0,0,0,0c0-0.1,0.1-0.1,0.2-0.2
	C25,5.2,25,5,25,4.9c0,0,0,0.1,0,0.1C24.9,5.1,24.8,5.2,24.8,5.3z M25.2,20.6c0,0.1-0.1,0.1-0.1,0.2c0,0,0,0,0,0c0,0,0,0,0,0
	C25.2,20.8,25.2,20.7,25.2,20.6l0.1,0c0.1,0,0.1,0.1,0.1,0.1c0,0.1-0.1,0.1-0.2,0.2c-0.2,0.1-0.3,0.1-0.4,0.2
	c-0.1,0.1-0.1,0.4,0.1,0.4c0.1,0,0.1,0,0.1-0.1c0,0,0,0,0,0c0,0-0.1,0-0.1,0c0,0,0,0,0,0c0-0.1,0.2-0.2,0.4-0.1
	c0.2,0.1,0.2,0.3,0.1,0.4c-0.3,0.3-0.8,0-0.8-0.3c0-0.2,0.3-0.5,0.4-0.6C25.1,20.6,25.2,20.6,25.2,20.6z M24.9,20.3
	c-0.1-0.4,0.2-0.6,0.3-0.9c0-0.1,0.1-0.3,0.1-0.4c0-0.1,0-0.1,0-0.2c0,0,0,0,0,0c0,0,0,0,0,0c0.1,0.1,0.1,0.3,0.1,0.4
	c0,0.1,0,0.2,0,0.3c-0.1,0.2-0.2,0.4-0.3,0.6C25,20.2,24.9,20.3,24.9,20.3C24.9,20.4,24.9,20.4,24.9,20.3z M25.7,19.3
	c0,0.1,0,0.2,0,0.3c-0.1,0.2-0.1,0.4-0.2,0.6c0,0.1-0.1,0.2-0.1,0.2c0,0-0.2,0-0.2,0c0,0,0,0,0,0c0-0.1,0.1-0.1,0.1-0.2
	c0.1-0.1,0.1-0.2,0.1-0.2c0.1-0.2,0.1-0.5,0.2-0.7c0-0.3-0.1-0.7-0.2-0.8c-0.1-0.1-0.2-0.3-0.1-0.4c0,0,0.1,0,0.1,0
	C25.5,18.3,25.7,18.8,25.7,19.3z M25.5,17.9C25.5,17.9,25.5,17.9,25.5,17.9c-0.1,0-0.1,0-0.1,0c0,0-0.3-0.3-0.3-0.3c0,0,0.1,0,0.1,0
	C25.3,17.7,25.5,17.8,25.5,17.9z M25.4,17.1c0,0.1,0,0.1-0.1,0.1c0,0,0,0-0.1,0c0-0.1-0.1-0.2,0-0.3c0,0,0.1,0,0.1,0
	C25.4,17,25.4,17,25.4,17.1z M25.3,10.2c0.1,0,0.1,0.1,0.1,0.1c0,0.1,0,0.1-0.1,0.2c0,0-0.1,0-0.1,0C25.1,10.4,25.2,10.3,25.3,10.2
	C25.2,10.2,25.3,10.2,25.3,10.2z M25.4,9.5C25.5,9.5,25.5,9.5,25.4,9.5c0,0.1-0.2,0.3-0.3,0.3c0,0-0.1,0-0.1,0
	C25.1,9.8,25.3,9.5,25.4,9.5C25.4,9.5,25.4,9.5,25.4,9.5z M25.2,8.6c0,0,0-0.1,0-0.2c0-0.1,0-0.3-0.1-0.4c-0.1-0.3-0.4-0.5-0.3-0.9
	c0,0,0,0,0,0c0,0,0.1,0.1,0.2,0.2c0.1,0.2,0.2,0.3,0.3,0.6c0,0.1,0,0.2,0,0.3C25.4,8.3,25.3,8.5,25.2,8.6
	C25.2,8.6,25.2,8.6,25.2,8.6C25.2,8.6,25.2,8.6,25.2,8.6z M25.5,7.2c0.1,0.2,0.2,0.4,0.2,0.6c0,0.1,0,0.2,0,0.3c0,0.4-0.2,1-0.4,1.2
	c0,0-0.1,0-0.1,0c-0.1-0.1,0.1-0.3,0.1-0.4c0.1-0.1,0.2-0.5,0.2-0.8c0-0.3-0.1-0.5-0.2-0.7c0-0.1-0.1-0.2-0.1-0.2
	c0-0.1-0.1-0.1-0.1-0.2c0,0,0,0,0,0c0,0,0.2-0.1,0.2,0C25.4,7,25.4,7.1,25.5,7.2z M25.3,5.9c0.1,0.1,0.1,0.3-0.1,0.4
	c-0.2,0.1-0.4,0-0.4-0.1c0,0,0,0,0,0c0,0,0.1,0,0.1,0c0,0,0,0,0,0C25,6,25,6,24.9,6c-0.2,0-0.2,0.2-0.1,0.4c0.1,0.1,0.3,0.1,0.4,0.2
	c0.1,0,0.2,0.1,0.2,0.2c0,0.1-0.1,0.1-0.1,0.1l0,0c0,0-0.1-0.2-0.1-0.2c0,0,0,0,0,0c0,0,0,0,0,0c0,0.1,0.1,0.1,0.1,0.2
	c0,0-0.1,0-0.2,0c-0.1-0.2-0.4-0.4-0.4-0.6C24.5,5.9,25,5.6,25.3,5.9z M8.3,22.4C8.3,22.5,8.3,22.5,8.3,22.4c0.1,0,0.3-0.2,0.3-0.3
	c0,0,0,0,0,0C8.5,22.2,8.3,22.4,8.3,22.4z M24.5,22.4C24.5,22.4,24.5,22.4,24.5,22.4c0-0.1-0.2-0.3-0.3-0.3c0,0,0,0,0,0
	C24.2,22.2,24.4,22.4,24.5,22.4z M24.5,5C24.5,5,24.5,5,24.5,5c-0.1,0-0.3,0.2-0.3,0.3c0,0,0,0,0,0C24.3,5.3,24.5,5.1,24.5,5z
	 M19.7,4c-0.1,0-0.2,0.1-0.3,0.1c0,0-0.1,0-0.1,0c-0.1-0.3-0.4-0.2-0.6,0c0,0-0.1,0.1-0.1,0.1c-0.1,0-0.1-0.1-0.2-0.1
	c-0.1,0-0.4-0.1-0.5,0c-0.1,0-0.2,0.1-0.4,0.2c-1.4,0-1.4,0-1.2,0c0,0,0,0.1,0.1,0.1l1.3,0c0.1,0,0.2,0.1,0.3,0.1c0.1,0,0.3,0,0.4,0
	c0.1,0,0.1,0,0.2-0.1c0.1,0,0.2,0.2,0.2,0.3c0.2,0.1,0.4-0.2,0.5-0.2c0,0.1,0.1,0.1,0.2,0.1c0.2,0,0.3-0.1,0.4-0.1
	c0.2,0,0.6,0,0.8,0c0.4,0.1,0.6,0.3,1,0.3c0.1,0,0.3,0,0.4,0c0,0,0.1-0.1,0.2-0.1C22.5,4.9,22.6,5,23,5.1c0.1,0,0.3,0.1,0.4,0
	c0.1,0,0.1,0,0.2-0.1c0,0,0.1,0,0.1,0C23.9,5,24,4.9,24.2,4.8c0.1-0.1,0.2-0.1,0.3-0.1c0.1,0,0.2,0,0.1,0c-0.2,0-0.3-0.1-0.5,0
	c-0.1,0-0.2,0.1-0.3,0.1c0,0,0,0,0,0c0-0.1,0-0.2,0-0.3c-0.1-0.2-0.2-0.3-0.4-0.3c-0.1,0-0.2,0-0.3,0c-0.2,0-0.2,0.1-0.3,0.2h0
	c-0.1-0.1-0.2-0.3-0.4-0.2c-0.1,0-0.1,0.1-0.2,0.2c-0.1,0-0.1,0-0.2-0.1c-0.1,0-0.3-0.1-0.4-0.1c-0.2,0-0.4-0.1-0.6-0.1
	c-0.1,0-0.3,0-0.4,0C20.3,3.9,20,4,19.7,4z M18,4.4C17.9,4.4,17.9,4.4,18,4.4c0-0.1,0-0.2,0.2-0.2c0.1,0,0.1,0,0.2,0.1
	c0,0,0,0,0,0.1C18.2,4.4,18.1,4.5,18,4.4z M18.7,4.4c0-0.1,0.3-0.2,0.4-0.2c0,0,0,0,0,0c0,0,0,0,0,0.1C19.1,4.3,18.8,4.5,18.7,4.4
	C18.8,4.5,18.7,4.5,18.7,4.4z M20.9,4.5c-0.1,0-0.3-0.1-0.5-0.1c-0.1,0-0.1,0-0.2,0c0,0,0,0,0,0c0,0,0,0,0,0
	c0.1-0.1,0.3-0.1,0.5-0.1c0.1,0,0.2,0,0.4,0c0.3,0.1,0.5,0.1,0.7,0.2c0.1,0,0.2,0.1,0.2,0.1c0,0,0,0,0,0C21.5,4.8,21.2,4.6,20.9,4.5
	z M22.6,4.2c0.1,0,0.1,0.1,0.2,0.2c0.1,0.1,0.1,0.3,0.2,0.3c0.2,0.1,0.5,0.1,0.4-0.1c0,0-0.1-0.1-0.1-0.1c0,0,0,0-0.1,0
	c0,0,0,0.1,0,0.1c0,0,0,0,0,0c-0.1,0-0.2-0.2-0.2-0.3c0.1-0.1,0.3-0.2,0.5-0.1C23.8,4.5,23.5,5,23,5c-0.2,0-0.6-0.3-0.7-0.4
	c0-0.1,0-0.1,0.1-0.2c0.1,0,0.1,0.1,0.2,0.1c0,0,0,0,0,0c0,0,0,0,0,0c0,0-0.1-0.1-0.2-0.1v0C22.4,4.3,22.5,4.2,22.6,4.2z M21.1,4
	c0.3,0,0.5,0.1,0.8,0.2c0.1,0,0.2,0.1,0.3,0.1c0,0,0,0.1,0,0.2c0,0,0,0,0,0c-0.1,0-0.1,0-0.2-0.1c-0.1,0-0.2-0.1-0.3-0.1
	c-0.3-0.1-0.5-0.1-0.9-0.1c-0.3,0-0.8,0.1-0.9,0.2c-0.1,0.1-0.3,0.2-0.5,0.1c0,0,0-0.1,0-0.1C19.5,4.1,20.2,4,20.7,4
	C20.9,4,21,4,21.1,4z M12.1,3.9c-0.1,0-0.3,0-0.4,0c-0.2,0-0.4,0.1-0.6,0.1c-0.1,0-0.3,0.1-0.4,0.1c0,0-0.1,0-0.2,0.1
	c-0.1-0.1-0.1-0.1-0.2-0.2C10.2,4,10,4.2,10,4.3l0,0C9.8,4.2,9.8,4.1,9.6,4.1c-0.1,0-0.2,0-0.3,0C9.1,4.2,9,4.2,8.9,4.5
	c0,0.1,0,0.2,0,0.3c0,0,0,0,0,0c-0.1,0-0.2-0.1-0.3-0.1c-0.1-0.1-0.3,0-0.5,0c0,0,0.1,0,0.1,0c0.1,0,0.2,0.1,0.3,0.1
	C8.8,4.9,8.9,5,9.1,5.1c0.1,0,0.1,0,0.1,0c0.1,0,0.1,0,0.2,0.1c0.1,0,0.3,0,0.4,0c0.3-0.1,0.5-0.2,0.8-0.4c0,0,0.1,0.1,0.2,0.1
	c0.1,0,0.3,0,0.4,0c0.4-0.1,0.6-0.3,1-0.3c0.2,0,0.6,0,0.8,0c0.1,0,0.2,0.1,0.4,0.1c0.1,0,0.2-0.1,0.2-0.1c0.1,0,0.3,0.4,0.5,0.2
	c0.1,0,0.2-0.2,0.2-0.3c0,0,0.1,0.1,0.2,0.1c0.1,0,0.3,0,0.4,0c0.1,0,0.2-0.1,0.3-0.1l2.4,0c0,0,0.1-0.1,0.1-0.1c0.1,0-0.9,0-2.3,0
	c-0.2,0-0.3-0.1-0.4-0.2c-0.1,0-0.4,0-0.5,0c-0.1,0-0.1,0.1-0.2,0.1c0,0-0.1-0.1-0.1-0.1c-0.2-0.1-0.5-0.2-0.6,0c0,0,0,0-0.1,0
	c-0.1,0-0.2-0.1-0.3-0.1C12.8,4,12.5,3.9,12.1,3.9z M14.5,4.4C14.5,4.4,14.5,4.4,14.5,4.4c0-0.1,0.1-0.1,0.2-0.1
	c0.1,0,0.2,0,0.2,0.1c0,0,0,0.1,0,0.1C14.8,4.5,14.6,4.4,14.5,4.4z M14,4.5c0,0-0.3-0.2-0.3-0.2c0,0,0,0,0-0.1c0,0,0,0,0,0
	C13.8,4.2,14,4.4,14,4.5C14.1,4.5,14,4.5,14,4.5z M10.8,4.7C10.8,4.7,10.8,4.7,10.8,4.7C10.9,4.6,11,4.6,11,4.5
	c0.2-0.1,0.4-0.2,0.7-0.2c0.1,0,0.2,0,0.4,0c0.2,0,0.4,0,0.5,0.1c0,0,0,0,0,0c0,0,0,0,0,0c-0.1,0-0.1,0-0.2,0c-0.1,0-0.4,0-0.5,0.1
	C11.6,4.6,11.3,4.8,10.8,4.7z M10.4,4.3L10.4,4.3c-0.1,0.1-0.2,0.1-0.2,0.1c0,0,0,0,0,0c0,0,0,0,0,0C10.4,4.5,10.4,4.4,10.4,4.3
	c0.1,0.1,0.1,0.2,0.1,0.3C10.3,4.7,10,4.9,9.8,5C9.3,5,9,4.5,9.4,4.3c0.1-0.1,0.4-0.1,0.5,0.1c0.1,0.1,0,0.3-0.2,0.3c0,0,0,0,0,0
	c0,0,0-0.1,0-0.1c0,0,0,0-0.1,0c-0.1,0-0.1,0-0.1,0.1c0,0.2,0.3,0.2,0.4,0.1C10,4.7,10,4.5,10.1,4.4c0-0.1,0.1-0.2,0.2-0.2
	C10.3,4.2,10.4,4.3,10.4,4.3z M12.1,4c0.5,0,1.2,0.1,1.4,0.4c0,0,0,0.1,0,0.1c-0.2,0.1-0.4-0.1-0.5-0.1c-0.2-0.1-0.6-0.2-0.9-0.2
	c-0.3,0-0.6,0.1-0.9,0.1c-0.1,0-0.2,0.1-0.3,0.1c-0.1,0-0.1,0.1-0.2,0.1c0,0,0,0,0,0c0,0-0.1-0.1,0-0.2c0-0.1,0.2-0.1,0.3-0.1
	c0.2-0.1,0.5-0.1,0.8-0.2C11.9,4,12,4,12.1,4z M20.7,23.4c0.1,0,0.3,0,0.4,0c0.2,0,0.4-0.1,0.6-0.1c0.1,0,0.3-0.1,0.4-0.1
	c0,0,0.1,0,0.2-0.1c0.1,0.1,0.1,0.1,0.2,0.2c0.2,0.1,0.4-0.1,0.4-0.2h0c0.1,0.1,0.2,0.1,0.3,0.2c0.1,0,0.2,0,0.3,0
	c0.2,0,0.3-0.1,0.4-0.3c0-0.1,0-0.2,0-0.3c0,0,0,0,0,0c0.1,0,0.2,0.1,0.3,0.1c0.1,0.1,0.3,0,0.5,0c0,0-0.1,0-0.1,0
	c-0.1,0-0.2-0.1-0.3-0.1c-0.2-0.1-0.3-0.3-0.5-0.3c-0.1,0-0.1,0-0.1,0c-0.1,0-0.1,0-0.2-0.1c-0.1,0-0.3,0-0.4,0
	c-0.3,0.1-0.5,0.2-0.8,0.4c0,0-0.1-0.1-0.2-0.1c-0.1,0-0.3,0-0.4,0c-0.4,0.1-0.6,0.3-1,0.3c-0.2,0-0.6,0-0.8,0
	c-0.1,0-0.2-0.1-0.4-0.1c-0.1,0-0.2,0.1-0.2,0.1c-0.1,0-0.3-0.4-0.5-0.2c-0.1,0-0.2,0.2-0.2,0.3c0,0-0.1-0.1-0.2-0.1
	c-0.1,0-0.3,0-0.4,0c-0.1,0-0.2,0.1-0.3,0.1l-1.3,0c0,0-0.1,0.1-0.1,0.1c-0.1,0-0.2,0,1.2,0c0.2,0,0.3,0.1,0.4,0.2
	c0.1,0,0.4,0,0.5,0c0.1,0,0.1-0.1,0.2-0.1c0,0,0.1,0.1,0.1,0.1c0.2,0.1,0.5,0.2,0.6,0c0,0,0,0,0.1,0c0.1,0,0.2,0.1,0.3,0.1
	C20,23.4,20.3,23.4,20.7,23.4z M18.3,23C18.3,23,18.3,23,18.3,23c0,0.1-0.1,0.1-0.2,0.1c-0.1,0-0.2,0-0.2-0.1c0,0,0-0.1,0-0.1
	C18.1,22.9,18.2,22.9,18.3,23z M18.8,22.8c0,0,0.3,0.2,0.3,0.2c0,0,0,0,0,0.1c0,0,0,0,0,0C19,23.2,18.8,23,18.8,22.8
	C18.8,22.9,18.8,22.9,18.8,22.8z M22,22.7C22,22.7,22,22.7,22,22.7c0,0.1-0.1,0.1-0.2,0.2c-0.2,0.1-0.4,0.2-0.7,0.2
	c-0.1,0-0.2,0-0.4,0c-0.2,0-0.4,0-0.5-0.1c0,0,0,0,0,0c0,0,0,0,0,0c0.1,0,0.1,0,0.2,0c0.1,0,0.4,0,0.5-0.1
	C21.3,22.8,21.5,22.5,22,22.7z M22.4,23L22.4,23c0.1-0.1,0.2-0.1,0.2-0.1c0,0,0,0,0,0c0,0,0,0,0,0C22.5,22.8,22.4,22.9,22.4,23
	c-0.1-0.1-0.1-0.2-0.1-0.3c0.2-0.1,0.5-0.3,0.7-0.4c0.5-0.1,0.7,0.4,0.4,0.6c-0.1,0.1-0.4,0.1-0.5-0.1c-0.1-0.1,0-0.3,0.2-0.3
	c0,0,0,0,0,0c0,0,0,0.1,0,0.1c0,0,0,0,0.1,0c0.1,0,0.1,0,0.1-0.1c0-0.2-0.3-0.2-0.4-0.1c-0.1,0.1-0.1,0.2-0.2,0.3
	c0,0.1-0.1,0.2-0.2,0.2C22.5,23.1,22.4,23.1,22.4,23z M20.7,23.4c-0.5,0-1.2-0.1-1.4-0.4c0,0,0-0.1,0-0.1c0.2-0.1,0.4,0.1,0.5,0.1
	c0.2,0.1,0.6,0.2,0.9,0.2c0.3,0,0.6-0.1,0.9-0.1c0.1,0,0.2-0.1,0.3-0.1c0.1,0,0.1-0.1,0.2-0.1c0,0,0,0,0,0c0,0,0.1,0.1,0,0.2
	c0,0.1-0.2,0.1-0.3,0.1c-0.2,0.1-0.5,0.1-0.8,0.2C21,23.3,20.9,23.4,20.7,23.4z M13.1,23.3c0.1,0,0.2-0.1,0.3-0.1c0,0,0.1,0,0.1,0
	c0.1,0.3,0.4,0.2,0.6,0c0,0,0.1-0.1,0.1-0.1c0.1,0,0.1,0.1,0.2,0.1c0.1,0,0.4,0.1,0.5,0c0.1,0,0.2-0.1,0.4-0.2c1.4,0,2.5,0,2.3,0
	c0,0,0-0.1-0.1-0.1l-2.4,0c-0.1,0-0.2-0.1-0.3-0.1c-0.1,0-0.3-0.1-0.4,0c-0.1,0-0.1,0-0.2,0.1c-0.1,0-0.2-0.2-0.2-0.3
	c-0.2-0.1-0.4,0.2-0.5,0.2c0,0-0.1-0.1-0.2-0.1c-0.2,0-0.3,0.1-0.4,0.1c-0.2,0-0.6,0-0.8,0c-0.4-0.1-0.6-0.3-1-0.3
	c-0.1,0-0.3,0-0.4,0c0,0-0.1,0.1-0.2,0.1c-0.3-0.1-0.5-0.3-0.8-0.4c-0.1,0-0.3-0.1-0.4,0c-0.1,0-0.1,0-0.2,0.1c0,0-0.1,0-0.1,0
	c-0.2,0.1-0.4,0.2-0.5,0.3c-0.1,0.1-0.2,0.1-0.3,0.1c-0.1,0-0.2,0-0.1,0c0.2,0,0.3,0.1,0.5,0c0.1,0,0.2-0.1,0.3-0.1c0,0,0,0,0,0
	c0,0.1,0,0.2,0,0.3c0.1,0.2,0.2,0.3,0.4,0.3c0.1,0,0.2,0,0.3,0c0.2,0,0.2-0.1,0.3-0.2h0c0.1,0.1,0.2,0.3,0.4,0.2
	c0.1,0,0.1-0.1,0.2-0.2c0.1,0,0.1,0,0.2,0.1c0.1,0,0.3,0.1,0.4,0.1c0.2,0,0.4,0.1,0.6,0.1c0.1,0,0.3,0,0.4,0
	C12.6,23.5,12.8,23.4,13.1,23.3z M14.8,22.9C14.9,22.9,14.9,23,14.8,22.9c0,0.1,0,0.2-0.2,0.2c-0.1,0-0.1,0-0.2-0.1c0,0,0,0,0-0.1
	C14.6,22.9,14.8,22.9,14.8,22.9z M14.1,22.9c0,0.1-0.3,0.2-0.4,0.2c0,0,0,0,0,0c0,0,0,0,0-0.1C13.7,23.1,14,22.9,14.1,22.9
	C14.1,22.9,14.1,22.9,14.1,22.9z M12,22.9c0.1,0,0.3,0.1,0.5,0.1c0.1,0,0.1,0,0.2,0c0,0,0,0,0,0c0,0,0,0,0,0
	c-0.1,0.1-0.3,0.1-0.5,0.1c-0.1,0-0.2,0-0.4,0c-0.3-0.1-0.5-0.1-0.7-0.2c-0.1,0-0.2-0.1-0.2-0.1c0,0,0,0,0,0
	C11.3,22.5,11.6,22.8,12,22.9z M10.3,23.1c-0.1,0-0.1-0.1-0.2-0.2c-0.1-0.1-0.1-0.3-0.2-0.3c-0.2-0.1-0.5-0.1-0.4,0.1
	c0,0,0.1,0.1,0.1,0.1c0,0,0,0,0.1,0c0,0,0-0.1,0-0.1c0,0,0,0,0,0c0.1,0,0.2,0.2,0.2,0.3c-0.1,0.1-0.3,0.2-0.5,0.1
	c-0.3-0.2-0.1-0.7,0.4-0.6c0.2,0,0.6,0.3,0.7,0.4c0,0.1,0,0.1-0.1,0.2c-0.1,0-0.1-0.1-0.2-0.1c0,0,0,0,0,0c0,0,0,0,0,0
	c0,0,0.1,0.1,0.2,0.1l0,0C10.4,23.1,10.3,23.1,10.3,23.1z M11.7,23.3c-0.3,0-0.5-0.1-0.8-0.2c-0.1,0-0.2-0.1-0.3-0.1
	c0,0,0-0.1,0-0.2c0,0,0,0,0,0c0.1,0,0.1,0,0.2,0.1c0.1,0,0.2,0.1,0.3,0.1c0.3,0.1,0.5,0.1,0.9,0.1c0.3,0,0.8-0.1,0.9-0.2
	c0.1-0.1,0.3-0.2,0.5-0.1c0,0,0,0.1,0,0.1c-0.2,0.2-0.9,0.4-1.4,0.4C12,23.4,11.9,23.4,11.7,23.3z"/>
<path style="fill:#D7C265;" d="M8.1,23.2c0.1-0.1,0.3-0.3,0.4-0.4c0,0,0-0.1,0-0.1c0,0,0-0.1,0.1-0.1c0-0.1,0-0.3,0-0.3
	c-0.1-0.3-0.3-0.4-0.4-0.7c0,0,0.1-0.1,0.1-0.1c0-0.1,0.1-0.2,0-0.3c-0.1-0.3-0.3-0.5-0.4-0.9c0-0.2,0-0.5,0-0.7
	c0-0.1,0.2-0.2,0.1-0.3c0-0.1-0.1-0.1-0.2-0.2c0.1-0.1,0.4-0.2,0.3-0.4c-0.1-0.1-0.3-0.1-0.3-0.2c0,0,0.1-0.1,0.1-0.2
	c0-0.1,0-0.3,0-0.3c0-0.1-0.1-0.2-0.2-0.3c0-0.5,0-1,0-1.6l0-2.6c0-0.5,0-1,0-1.6c0-0.1,0.1-0.2,0.2-0.3c0-0.1,0.1-0.2,0-0.3
	c0,0-0.1-0.1-0.1-0.2C7.7,11,8,11,8,10.9c0.1-0.2-0.2-0.3-0.3-0.4c0.1,0,0.1-0.1,0.2-0.2c0-0.2-0.1-0.2-0.1-0.3
	c-0.1-0.2,0-0.5,0-0.7C7.8,9,8.1,8.8,8.2,8.4c0-0.1,0-0.3,0-0.3C8.1,8.1,8.1,8,8,8c0.2-0.2,0.3-0.4,0.4-0.7c0-0.1,0.1-0.2,0-0.3
	c0,0,0-0.1-0.1-0.1c0,0,0-0.1,0-0.1C8.4,6.5,8.2,6.4,8.1,6.3C8,6.2,7.9,6.1,7.9,6c0-0.1,0-0.2,0-0.1c0,0.1-0.1,0.3,0,0.4
	C7.9,6.4,8,6.4,8,6.5c0,0,0,0,0,0c-0.1,0-0.2,0-0.3,0C7.4,6.6,7.3,6.7,7.3,6.9c0,0,0,0.1,0,0.2c0,0.1,0.1,0.2,0.2,0.3l0,0
	c-0.1,0-0.3,0.2-0.2,0.4c0,0.1,0.1,0.1,0.2,0.2c0,0,0,0.1-0.1,0.1C7.3,8.2,7.2,8.3,7.2,8.4C7.1,8.6,7.1,8.7,7.1,8.9C7,9,7,9.1,7,9.2
	c0,0.4,0,0.6,0.2,0.9c0,0.1,0.1,0.2,0.2,0.3c0,0,0,0.1,0,0.1c-0.3,0.1-0.2,0.3-0.1,0.5c0,0,0.1,0.1,0.1,0.1c0,0-0.1,0.1-0.1,0.2
	c0,0.1-0.1,0.3,0,0.4c0,0.1,0.2,0.2,0.2,0.3c0,0.5,0,1.1,0,1.6c0,0.5,0,1.9,0,2.4c0,0.5,0,1.1,0,1.6c0,0.1-0.2,0.2-0.2,0.3
	c0,0.1,0,0.3,0,0.4c0,0,0.1,0.1,0.1,0.2c0,0-0.1,0.1-0.1,0.1C7.1,18.8,7,19,7.3,19.1c0,0,0,0,0,0.1c0,0.1-0.1,0.2-0.2,0.3
	C7.1,19.7,7,19.9,7,20.3c0,0.1,0,0.2,0,0.3c0,0.2,0.1,0.3,0.1,0.5c0,0.1,0.1,0.2,0.2,0.3c0,0,0.1,0.1,0.1,0.1
	c-0.1,0.1-0.1,0.1-0.2,0.2c-0.1,0.2,0.1,0.3,0.2,0.4l0,0c-0.1,0.1-0.2,0.1-0.2,0.3c0,0.1,0,0.2,0,0.2c0.1,0.2,0.1,0.3,0.4,0.3
	c0.1,0,0.2,0,0.3,0c0,0,0,0,0,0c0,0.1-0.1,0.1-0.2,0.2c-0.1,0.1,0,0.3,0,0.4c0,0,0-0.1,0-0.1C7.9,23.4,8,23.3,8.1,23.2z M7.6,7.8
	c0-0.1,0.1-0.1,0.1-0.2c0,0,0,0,0,0c0,0,0,0,0,0C7.7,7.6,7.6,7.8,7.6,7.8l-0.1,0c-0.1,0-0.1-0.1-0.1-0.1c0-0.1,0.1-0.1,0.2-0.2
	C7.8,7.5,7.9,7.4,8,7.3C8.1,7.2,8.1,7,7.9,7C7.8,7,7.8,7,7.8,7.1c0,0,0,0,0,0c0,0,0.1,0,0.1,0c0,0,0,0,0,0c0,0.1-0.2,0.2-0.4,0.1
	C7.4,7.3,7.4,7,7.5,6.9c0.3-0.3,0.8,0,0.8,0.3c0,0.2-0.3,0.5-0.4,0.6C7.8,7.9,7.7,7.9,7.6,7.8z M8,8.1c0.1,0.4-0.2,0.6-0.3,0.9
	c0,0.1-0.1,0.3-0.1,0.4c0,0,0,0.1,0,0.2c0,0,0,0,0,0l0,0C7.5,9.5,7.5,9.3,7.5,9.2c0-0.1,0-0.2,0-0.3c0.1-0.2,0.2-0.4,0.3-0.6
	C7.8,8.2,7.9,8.2,8,8.1C7.9,8.1,8,8.1,8,8.1z M7.1,9.2c0-0.1,0-0.2,0-0.3c0.1-0.2,0.1-0.4,0.2-0.6C7.4,8.2,7.4,8,7.5,8
	c0,0,0.2,0,0.2,0c0,0,0,0,0,0c0,0.1-0.1,0.1-0.1,0.2C7.6,8.3,7.5,8.4,7.5,8.4C7.4,8.7,7.4,8.9,7.3,9.2c0,0.3,0.1,0.7,0.2,0.8
	c0.1,0.1,0.2,0.3,0.1,0.4c0,0-0.1,0-0.1,0C7.3,10.2,7.1,9.6,7.1,9.2z M7.3,10.6C7.3,10.5,7.4,10.5,7.3,10.6c0.1,0,0.1,0,0.1,0
	c0,0,0.3,0.3,0.3,0.3c0,0-0.1,0-0.1,0.1C7.6,10.8,7.4,10.6,7.3,10.6z M7.4,11.4c0-0.1,0-0.1,0.1-0.1c0,0,0,0,0.1,0
	c0,0.1,0.1,0.2,0,0.3c0,0-0.1,0-0.1,0C7.5,11.5,7.4,11.5,7.4,11.4z M7.5,18.3c-0.1,0-0.1-0.1-0.1-0.1c0-0.1,0-0.1,0.1-0.2
	c0,0,0.1,0,0.1,0C7.7,18.1,7.6,18.2,7.5,18.3C7.6,18.3,7.6,18.3,7.5,18.3z M7.4,19C7.4,19,7.4,19,7.4,19c0-0.1,0.2-0.3,0.3-0.3
	c0,0,0.1,0,0.1,0.1C7.7,18.7,7.5,18.9,7.4,19C7.4,19,7.4,19,7.4,19z M7.6,19.9c0,0,0,0.1,0,0.2c0,0.1,0,0.3,0.1,0.4
	C7.8,20.7,8.1,21,8,21.4c0,0,0,0,0,0c-0.1,0-0.1-0.1-0.2-0.2c-0.1-0.2-0.2-0.3-0.3-0.6c0-0.1,0-0.2,0-0.3C7.5,20.1,7.5,20,7.6,19.9
	L7.6,19.9C7.6,19.9,7.6,19.9,7.6,19.9z M7.4,21.3c-0.1-0.2-0.2-0.4-0.2-0.6c0-0.1,0-0.2,0-0.3c0-0.4,0.2-1,0.4-1.2c0,0,0.1,0,0.1,0
	c0.1,0.1-0.1,0.3-0.1,0.4c-0.1,0.1-0.2,0.5-0.2,0.8c0,0.3,0.1,0.5,0.2,0.7c0,0.1,0.1,0.2,0.1,0.2c0,0.1,0.1,0.1,0.1,0.2c0,0,0,0,0,0
	c0,0-0.2,0.1-0.2,0C7.5,21.5,7.4,21.3,7.4,21.3z M7.5,22.6c-0.1-0.1-0.1-0.3,0.1-0.4c0.2-0.1,0.4,0,0.4,0.1c0,0,0,0,0,0
	c-0.1,0-0.1,0-0.1,0c0,0,0,0,0,0c0,0.1,0,0.1,0.1,0.1c0.2,0,0.2-0.2,0.1-0.4C7.9,22.1,7.8,22,7.6,22c-0.1,0-0.2-0.1-0.2-0.2
	c0-0.1,0.1-0.1,0.1-0.1h0c0,0,0.1,0.2,0.1,0.2c0,0,0,0,0,0c0,0,0,0,0,0c0-0.1-0.1-0.1-0.1-0.2c0,0,0.1,0,0.2,0
	C8,21.8,8.2,22,8.3,22.2C8.4,22.6,7.8,22.9,7.5,22.6z M8.3,23.4C8.3,23.5,8.3,23.5,8.3,23.4c0.1,0,0.3-0.2,0.3-0.3c0,0,0,0,0,0
	C8.5,23.2,8.3,23.4,8.3,23.4z M24.5,23.4C24.5,23.4,24.5,23.4,24.5,23.4c0-0.1-0.2-0.3-0.3-0.3c0,0,0,0,0,0
	C24.2,23.2,24.4,23.4,24.5,23.4z M20.7,24.4c0.1,0,0.3,0,0.4,0c0.2,0,0.4-0.1,0.6-0.1c0.1,0,0.3-0.1,0.4-0.1c0,0,0.1,0,0.2-0.1
	c0.1,0.1,0.1,0.1,0.2,0.2c0.2,0.1,0.4-0.1,0.4-0.2h0c0.1,0.1,0.2,0.1,0.3,0.2c0.1,0,0.2,0,0.3,0c0.2,0,0.3-0.1,0.4-0.3
	c0-0.1,0-0.2,0-0.3c0,0,0,0,0,0c0.1,0,0.2,0.1,0.3,0.1c0.1,0.1,0.3,0,0.5,0c0,0-0.1,0-0.1,0c-0.1,0-0.2-0.1-0.3-0.1
	c-0.2-0.1-0.3-0.3-0.5-0.3c-0.1,0-0.1,0-0.1,0c-0.1,0-0.1,0-0.2-0.1c-0.1,0-0.3,0-0.4,0c-0.3,0.1-0.5,0.2-0.8,0.4
	c0,0-0.1-0.1-0.2-0.1c-0.1,0-0.3,0-0.4,0c-0.4,0.1-0.6,0.3-1,0.3c-0.2,0-0.6,0-0.8,0c-0.1,0-0.2-0.1-0.4-0.1c-0.1,0-0.2,0.1-0.2,0.1
	c-0.1,0-0.3-0.4-0.5-0.2c-0.1,0-0.2,0.2-0.2,0.3c0,0-0.1-0.1-0.2-0.1c-0.1,0-0.3,0-0.4,0c-0.1,0-0.2,0.1-0.3,0.1l-1.3,0
	c0,0-0.1,0.1-0.1,0.1c-0.1,0-0.2,0,1.2,0c0.2,0,0.3,0.1,0.4,0.2c0.1,0,0.4,0,0.5,0c0.1,0,0.1-0.1,0.2-0.1c0,0,0.1,0.1,0.1,0.1
	c0.2,0.1,0.5,0.2,0.6,0c0,0,0,0,0.1,0c0.1,0,0.2,0.1,0.3,0.1C20,24.4,20.3,24.4,20.7,24.4z M18.3,24C18.3,24,18.3,24,18.3,24
	c0,0.1-0.1,0.1-0.2,0.1c-0.1,0-0.2,0-0.2-0.1c0,0,0-0.1,0-0.1C18.1,23.9,18.2,23.9,18.3,24z M18.8,23.8c0,0,0.3,0.2,0.3,0.2
	c0,0,0,0,0,0.1c0,0,0,0,0,0C19,24.2,18.8,24,18.8,23.8C18.8,23.9,18.8,23.9,18.8,23.8z M22,23.7C22,23.7,22,23.7,22,23.7
	c0,0.1-0.1,0.1-0.2,0.2c-0.2,0.1-0.4,0.2-0.7,0.2c-0.1,0-0.2,0-0.4,0c-0.2,0-0.4,0-0.5-0.1c0,0,0,0,0,0c0,0,0,0,0,0
	c0.1,0,0.1,0,0.2,0c0.1,0,0.4,0,0.5-0.1C21.3,23.8,21.5,23.5,22,23.7z M22.4,24L22.4,24c0.1-0.1,0.2-0.1,0.2-0.1c0,0,0,0,0,0
	c0,0,0,0,0,0C22.5,23.8,22.4,23.9,22.4,24c-0.1-0.1-0.1-0.2-0.1-0.3c0.2-0.1,0.5-0.3,0.7-0.4c0.5-0.1,0.7,0.4,0.4,0.6
	c-0.1,0.1-0.4,0.1-0.5-0.1c-0.1-0.1,0-0.3,0.2-0.3c0,0,0,0,0,0c0,0,0,0.1,0,0.1c0,0,0,0,0.1,0c0.1,0,0.1,0,0.1-0.1
	c0-0.2-0.3-0.2-0.4-0.1c-0.1,0.1-0.1,0.2-0.2,0.3c0,0.1-0.1,0.2-0.2,0.2C22.5,24.1,22.4,24.1,22.4,24z M20.7,24.4
	c-0.5,0-1.2-0.1-1.4-0.4c0,0,0-0.1,0-0.1c0.2-0.1,0.4,0.1,0.5,0.1c0.2,0.1,0.6,0.2,0.9,0.2c0.3,0,0.6-0.1,0.9-0.1
	c0.1,0,0.2-0.1,0.3-0.1c0.1,0,0.1-0.1,0.2-0.1c0,0,0,0,0,0c0,0,0.1,0.1,0,0.2c0,0.1-0.2,0.1-0.3,0.1c-0.2,0.1-0.5,0.1-0.8,0.2
	C21,24.3,20.9,24.4,20.7,24.4z M13.1,24.3c0.1,0,0.2-0.1,0.3-0.1c0,0,0.1,0,0.1,0c0.1,0.3,0.4,0.2,0.6,0c0,0,0.1-0.1,0.1-0.1
	c0.1,0,0.1,0.1,0.2,0.1c0.1,0,0.4,0.1,0.5,0c0.1,0,0.2-0.1,0.4-0.2c1.4,0,2.5,0,2.3,0c0,0,0-0.1-0.1-0.1l-2.4,0
	c-0.1,0-0.2-0.1-0.3-0.1c-0.1,0-0.3-0.1-0.4,0c-0.1,0-0.1,0-0.2,0.1c-0.1,0-0.2-0.2-0.2-0.3c-0.2-0.1-0.4,0.2-0.5,0.2
	c0,0-0.1-0.1-0.2-0.1c-0.2,0-0.3,0.1-0.4,0.1c-0.2,0-0.6,0-0.8,0c-0.4-0.1-0.6-0.3-1-0.3c-0.1,0-0.3,0-0.4,0c0,0-0.1,0.1-0.2,0.1
	c-0.3-0.1-0.5-0.3-0.8-0.4c-0.1,0-0.3-0.1-0.4,0c-0.1,0-0.1,0-0.2,0.1c0,0-0.1,0-0.1,0c-0.2,0.1-0.4,0.2-0.5,0.3
	c-0.1,0.1-0.2,0.1-0.3,0.1c-0.1,0-0.2,0-0.1,0c0.2,0,0.3,0.1,0.5,0c0.1,0,0.2-0.1,0.3-0.1c0,0,0,0,0,0c0,0.1,0,0.2,0,0.3
	c0.1,0.2,0.2,0.3,0.4,0.3c0.1,0,0.2,0,0.3,0c0.2,0,0.2-0.1,0.3-0.2h0c0.1,0.1,0.2,0.3,0.4,0.2c0.1,0,0.1-0.1,0.2-0.2
	c0.1,0,0.1,0,0.2,0.1c0.1,0,0.3,0.1,0.4,0.1c0.2,0,0.4,0.1,0.6,0.1c0.1,0,0.3,0,0.4,0C12.6,24.5,12.8,24.4,13.1,24.3z M14.8,23.9
	C14.9,23.9,14.9,24,14.8,23.9c0,0.1,0,0.2-0.2,0.2c-0.1,0-0.1,0-0.2-0.1c0,0,0,0,0-0.1C14.6,23.9,14.8,23.9,14.8,23.9z M14.1,23.9
	c0,0.1-0.3,0.2-0.4,0.2c0,0,0,0,0,0c0,0,0,0,0-0.1C13.7,24.1,14,23.9,14.1,23.9C14.1,23.9,14.1,23.9,14.1,23.9z M12,23.9
	c0.1,0,0.3,0.1,0.5,0.1c0.1,0,0.1,0,0.2,0c0,0,0,0,0,0c0,0,0,0,0,0c-0.1,0.1-0.3,0.1-0.5,0.1c-0.1,0-0.2,0-0.4,0
	c-0.3-0.1-0.5-0.1-0.7-0.2c-0.1,0-0.2-0.1-0.2-0.1c0,0,0,0,0,0C11.3,23.5,11.6,23.8,12,23.9z M10.3,24.1c-0.1,0-0.1-0.1-0.2-0.2
	c-0.1-0.1-0.1-0.3-0.2-0.3c-0.2-0.1-0.5-0.1-0.4,0.1c0,0,0.1,0.1,0.1,0.1c0,0,0,0,0.1,0c0,0,0-0.1,0-0.1c0,0,0,0,0,0
	c0.1,0,0.2,0.2,0.2,0.3c-0.1,0.1-0.3,0.2-0.5,0.1c-0.3-0.2-0.1-0.7,0.4-0.6c0.2,0,0.6,0.3,0.7,0.4c0,0.1,0,0.1-0.1,0.2
	c-0.1,0-0.1-0.1-0.2-0.1c0,0,0,0,0,0c0,0,0,0,0,0c0,0,0.1,0.1,0.2,0.1l0,0C10.4,24.1,10.3,24.1,10.3,24.1z M11.7,24.3
	c-0.3,0-0.5-0.1-0.8-0.2c-0.1,0-0.2-0.1-0.3-0.1c0,0,0-0.1,0-0.2c0,0,0,0,0,0c0.1,0,0.1,0,0.2,0.1c0.1,0,0.2,0.1,0.3,0.1
	c0.3,0.1,0.5,0.1,0.9,0.1c0.3,0,0.8-0.1,0.9-0.2c0.1-0.1,0.3-0.2,0.5-0.1c0,0,0,0.1,0,0.1c-0.2,0.2-0.9,0.4-1.4,0.4
	C12,24.4,11.9,24.4,11.7,24.3z"/>
<path style="fill-rule:evenodd;clip-rule:evenodd;fill:#D7C265;" d="M20.5,27.5h-1c-0.2,0-0.4-0.2-0.4-0.4v-0.9
	c0-0.2,0.2-0.4,0.4-0.4h1c0.2,0,0.4,0.2,0.4,0.4v0.9C20.9,27.4,20.7,27.5,20.5,27.5z M20.5,26.2h-1.1v1h1.1V26.2z M18.4,27.5h-1.1
	c-0.2,0-0.4-0.2-0.4-0.4v-0.9c0-0.2,0.2-0.4,0.4-0.4h1.1c0.2,0,0.3,0.1,0.4,0.3h-1.5v1h1.2v-0.4h-0.6c0,0-0.2,0-0.2-0.1
	c-0.1-0.1-0.1-0.1-0.1-0.2h1.2v0.6C18.7,27.4,18.6,27.5,18.4,27.5z M16.3,26.8h0.3v0.3h-0.3V26.8z M16.3,26.3h0.3v0.3h-0.3V26.3z
	 M15.7,27.5h-1.1c-0.2,0-0.4-0.2-0.4-0.4h1.4v-0.3h-1.1c-0.2,0-0.4-0.2-0.4-0.4v-0.2c0-0.2,0.2-0.4,0.4-0.4h1c0.2,0,0.4,0.2,0.4,0.4
	h-1.4v0.3h1.1c0.2,0,0.4,0.2,0.4,0.4v0.3C16.1,27.3,15.9,27.5,15.7,27.5z M13.5,27.5h-1c-0.2,0-0.4-0.2-0.4-0.4v-0.9
	c0-0.2,0.2-0.4,0.4-0.4h1c0.2,0,0.4,0.2,0.4,0.3v0h-1.4v0.9h1.4v0C13.9,27.4,13.7,27.5,13.5,27.5z"/>
<path style="fill-rule:evenodd;clip-rule:evenodd;fill:#D7C265;" d="M8.9,10l1.7,1l0.4,2.2l1,0.8l0.6-0.9L12.3,11l0.7-1.3l1.1,0.9
	l0.2,2.3l0.6,0.7l0.7-0.7l0.1-1.4l0.1-1c0.9-1.4,0.4-1.4,1.3,0l0.1,2.3l0.7,0.7l0.6-0.7l0.2-2.3l1.1-0.9l0.7,1.3l-0.3,2.2l0.6,0.9
	l1-0.8l0.4-2.2l1.7-1c-1.1,4.5-0.7,3.5-0.7,6.7c0,0.8-6.3,0.8-7,0.8c-0.7,0-7,0-7-0.8C9.3,13.6,9.8,14.6,8.9,10z M16.5,16.3
	c-0.5,0-6.5,0.2-6.5,0.4c0,0.2,6,0.4,6.5,0.4s6.5-0.2,6.5-0.4C23,16.4,17,16.3,16.5,16.3z"/>
</svg>
